<?xml version="1.0" standalone="no"?>
<!DOCTYPE svg PUBLIC "-//W3C//DTD SVG 20010904//EN"
 "http://www.w3.org/TR/2001/REC-SVG-20010904/DTD/svg10.dtd">
<svg version="1.0" xmlns="http://www.w3.org/2000/svg"
 width="598.000000pt" height="445.000000pt" viewBox="0 0 598.000000 445.000000"
 preserveAspectRatio="xMidYMid meet">

<g transform="translate(0.000000,445.000000) scale(0.100000,-0.100000)"
fill="#000000" stroke="none">
<path d="M0 2225 l0 -2225 2990 0 2990 0 0 2225 0 2225 -2990 0 -2990 0 0
-2225z m2418 1443 c21 -26 392 -971 473 -1205 46 -134 86 -243 89 -243 3 0 47
119 99 265 76 215 97 265 112 265 10 0 20 -4 23 -8 4 -7 -47 -155 -190 -549
-29 -80 -54 -96 -72 -45 -5 15 -51 144 -101 287 -50 143 -175 470 -278 728
l-187 467 -298 0 -298 0 19 -47 c10 -27 73 -182 140 -345 67 -164 121 -307
121 -318 0 -22 -22 -27 -37 -7 -20 26 -303 741 -299 754 8 19 668 19 684 1z
m1792 -3 c6 -8 9 -19 5 -25 -4 -6 -114 -10 -324 -10 l-318 0 -161 -407 c-154
-394 -180 -446 -197 -400 -6 13 307 820 327 845 8 9 87 12 333 12 270 0 325
-2 335 -15z m-1710 -1785 c211 -520 384 -954 384 -965 1 -13 -5 -20 -18 -20
-15 0 -86 167 -407 959 -214 527 -389 965 -389 972 0 17 23 24 36 10 6 -6 184
-436 394 -956z"/>
</g>
</svg>
